<svg viewBox="0 0 606 239" xmlns="http://www.w3.org/2000/svg"><defs><filter x="-50%" y="-50%" width="200%" height="200%" filterUnits="objectBoundingBox" id="a"><feOffset dx="1" dy="1" in="SourceAlpha" result="shadowOffsetOuter1"/><feColorMatrix values="0 0 0 0 1 0 0 0 0 1 0 0 0 0 1 0 0 0 0.323001585 0" in="shadowOffsetOuter1" result="shadowMatrixOuter1"/><feMerge><feMergeNode in="shadowMatrixOuter1"/><feMergeNode in="SourceGraphic"/></feMerge></filter></defs><g filter="url(#a)" fill="#FFF" fill-rule="evenodd"><path stroke="null" id="svg_1" d="m9.587447,26.128c3.404949,0 7.857575,-0.56 12.746732,-1.344c-1.396902,6.944 -4.190706,17.024 -6.635285,25.536c-6.373366,22.512 -9.516396,34.384 -11.437136,43.68c2.619191,5.488 5.762221,8.624 9.778315,9.408c1.571515,-12.656 4.1034,-25.536 9.16717,-45.36c2.619191,-10.192 7.333736,-26.544 10.651378,-35.056c3.841481,-0.56 7.682962,-0.896 11.34983,-0.896c2.095353,0 5.325689,0.224 8.294106,0.56c-0.96037,-6.832 -2.531885,-11.312 -6.809897,-11.312c-3.055724,0 -23.048885,3.136 -35.00986,3.136c-3.928787,0 -7.071817,-0.336 -8.556025,-1.232c-0.436532,1.12 -0.785758,3.136 -0.785758,4.256l7.24643,8.624zm30.624429,65.968c0.087306,2.352 1.92074,7.28 2.706497,7.28c0.436532,0 1.309596,-1.12 1.658822,-2.128c5.238383,-15.792 14.492859,-32.144 22.786965,-40.096c1.22229,-1.232 3.055724,-2.688 3.404949,-2.688c0.087307,0 0.349226,0.336 0.349226,0.448c-5.674915,14.672 -9.865621,28.784 -9.865621,33.152c0,3.472 2.357272,7.056 4.714544,7.056c1.833434,0 8.468719,-4.032 8.468719,-5.152c0,-0.336 -0.087306,-0.672 -0.611144,-1.792c-0.261919,0 -1.309596,0.896 -3.055724,0.896c-1.134983,0 -1.396902,-0.448 -1.396902,-1.904c0,-6.048 9.16717,-26.88 16.326294,-36.96c-2.619192,-4.256 -6.460673,-7.056 -9.516396,-7.056c-5.325689,0 -13.794408,9.296 -24.882319,27.44c2.095353,-10.752 4.801851,-19.04 9.254477,-30.24c4.1034,-10.304 11.349829,-22.512 20.080468,-33.936c-2.008047,-2.8 -7.333737,-5.376 -11.000605,-5.376c-7.94488,11.648 -15.889761,28.784 -20.604306,44.576c-5.325689,17.584 -8.817944,35.952 -8.817944,46.48zm73.666474,-43.344c-2.531885,6.72 -6.02414,15.12 -8.468719,20.384c-6.286059,13.44 -10.476765,19.712 -13.881714,20.608c-0.785758,-0.336 -1.22229,-1.12 -1.22229,-2.688c0,-13.776 11.437136,-33.6 20.778919,-35.504c-0.261919,-2.8 -4.190706,-8.064 -6.547978,-8.848c-9.42909,0.672 -22.001209,23.52 -22.001209,40.208c0,7.728 2.968417,13.328 7.24643,13.552c5.412996,-1.12 13.095957,-12.32 17.810502,-25.984c-2.18266,7.28 -3.317643,13.328 -3.317643,17.472c0,5.6 1.571515,8.288 4.714545,8.288c1.746128,0 4.278013,-0.896 5.674915,-2.016c-1.571515,-1.12 -2.269966,-4.032 -2.269966,-8.176c0,-7.616 3.230336,-20.832 7.944881,-33.376c0.087306,-1.456 -4.016094,-3.92 -6.460673,-3.92zm17.877541,2.352c-4.452625,13.776 -7.682961,28.896 -7.682961,36.176c0,5.264 6.635285,11.648 12.397506,11.872c1.92074,-0.224 8.2068,-5.6 9.516395,-8.176c-0.087306,-0.448 -0.349225,-1.12 -0.611144,-1.68c-2.444579,2.464 -5.674915,4.256 -9.16717,4.816c-1.833434,-0.336 -2.881111,-2.128 -2.881111,-5.488c0,-9.184 3.492255,-23.744 9.254477,-38.08c4.016093,-0.112 7.595655,-0.896 10.389459,-2.24c0,-1.232 -0.436532,-2.464 -0.96037,-3.136c-2.444579,0.336 -4.889158,0.448 -7.159124,0.448c2.881111,-6.272 5.063771,-10.64 8.556026,-16.24c-1.134983,-1.68 -6.722591,-4.032 -9.079864,-4.032c-1.92074,1.344 -6.98451,10.976 -10.476766,19.824c-2.357272,-0.112 -5.151076,-0.448 -8.2068,-0.672c0,2.016 0.611145,5.712 1.134983,6.608l4.976464,0zm31.846796,-13.888c6.722591,-5.6 10.738685,-16.016 12.659425,-29.456c-1.484208,-3.696 -6.722591,-6.608 -12.222893,-7.056c0.785757,4.256 1.047676,8.176 1.047676,11.872c0,8.288 -1.484208,15.232 -2.88111,20.384c0,1.568 0.698451,3.472 1.396902,4.256zm30.973498,12.208c-0.698451,-3.472 -7.421042,-12.208 -10.040234,-13.104c-6.111447,1.68 -11.524442,10.304 -11.524442,18.256c0,6.272 2.706497,12.768 2.706497,20.384c-10.12754,0.896 -17.985114,10.528 -17.985114,21.952c0.96037,4.144 4.976464,8.4 8.294106,8.736c9.341783,-1.232 15.016698,-9.296 15.016698,-21.728c0,-1.792 -0.087307,-2.912 -0.087307,-4.032c0,-1.68 0.436532,-1.904 5.849528,-3.472c0.174613,-0.224 0.349226,-0.896 0.349226,-1.456c0,-0.56 0,-0.672 -0.087307,-0.896c-1.833434,0 -3.666868,0.112 -6.111447,0.224c-0.087306,-0.224 -0.087306,-0.448 -0.087306,-1.344c0,-14.336 2.531885,-22.064 7.159123,-22.064c1.22229,0 2.095354,1.568 2.095354,3.696c0,1.792 -1.396903,5.152 -1.396903,6.048c0.087307,1.008 0.436532,1.568 1.134983,1.68c1.833434,0 4.452626,-7.168 4.714545,-12.88zm-28.811106,51.072c-1.134983,-1.008 -1.746128,-2.352 -1.746128,-4.032c0,-5.152 7.508349,-14.896 12.048281,-15.68c0,7.728 -4.714545,16.8 -10.302153,19.712z"/>
  <path id="svg_2" d="m4.552,211.472c6.396,13.612 19.516,20.992 37.392,20.992c39.032,0 73.144,-38.212 73.144,-80.852c0,-31.324 -24.764,-52.644 -59.696,-52.644c-27.716,0 -48.544,13.448 -52.808,33.62c1.312,6.724 6.068,11.48 10.988,13.12c5.084,-17.384 15.252,-29.192 28.864,-34.768c-4.592,15.416 -28.208,78.556 -37.884,100.532zm57.892,-104.304c23.78,0 38.868,13.12 38.868,35.588c0,40.344 -29.684,75.44 -65.272,75.44c-5.084,0 -9.676,-0.492 -12.628,-1.476c0,-6.232 5.248,-21.648 17.712,-49.364c9.84,-21.812 20.828,-43.132 24.272,-47.888c-2.296,-2.132 -9.02,-6.56 -18.532,-10.004c4.756,-1.476 10.004,-2.296 15.58,-2.296zm111.768,44.936c-4.428,-5.576 -9.184,-8.692 -14.104,-9.348c-21.648,0 -46.248,31.652 -46.248,58.548c0,13.12 8.856,23.452 23.944,25.092c10.332,-2.296 22.96,-11.644 32.8,-24.6c-0.82,-0.984 -1.64,-1.804 -2.788,-2.788c-6.888,7.38 -18.204,19.188 -30.012,19.188c-6.232,0 -7.544,-7.544 -7.544,-13.12c0,-1.476 0.164,-2.952 0.164,-4.264c27.88,-11.152 42.148,-21.812 43.788,-48.708zm-11.316,5.412c-0.82,14.924 -13.776,28.372 -31.16,37.064c5.248,-20.336 19.188,-35.424 31.16,-37.064zm11.968,53.14c0,6.278 1.314,11.826 3.066,12.994c1.314,0.876 3.504,3.212 3.942,4.234c0.584,1.314 2.774,2.482 5.402,2.774c-0.146,-0.73 -0.146,-0.876 -0.146,-4.234c0,-12.264 4.38,-31.244 12.556,-54.02c9.636,-26.718 20.586,-46.428 35.77,-64.386c-1.606,-2.482 -11.68,-8.322 -16.352,-9.198c-10.074,12.264 -20.586,34.018 -32.558,66.722c-7.446,20.44 -11.68,36.646 -11.68,45.114zm34.2168,-3.118c0,10.974 11.718,15.81 13.578,15.81c1.116,0 1.116,-1.674 1.116,-6.138c0.186,-5.394 2.976,-13.392 5.58,-20.274c6.324,-16.368 9.672,-29.574 21.018,-42.222c-4.836,-7.254 -13.206,-11.346 -17.298,-12.276c-11.16,5.58 -16.554,24.924 -17.67,29.76c-4.836,22.32 -6.324,31.062 -6.324,35.34zm35.526,-80.724c0,2.046 2.604,4.464 5.58,5.022c1.86,-4.092 15.438,-20.646 21.018,-25.854c-3.72,-5.58 -16.74,-13.02 -22.506,-13.02c-3.162,7.998 -5.766,20.088 -5.766,24.366c0,2.046 0.93,4.836 2.232,6.138c-0.372,1.488 -0.558,2.604 -0.558,3.348zm1.041,64.322c0,17.22 11.644,32.308 26.076,33.62c7.38,-1.312 20.828,-10.66 28.044,-19.68c0,-0.984 -0.82,-2.624 -1.64,-3.28c-10.168,7.544 -21.976,13.284 -28.372,14.104c-3.936,-1.804 -5.904,-7.052 -5.904,-15.908c0,-13.94 5.084,-27.06 14.432,-37.556c6.068,-6.724 13.448,-11.316 17.712,-11.316c2.46,0 3.772,1.64 3.772,4.756c0,5.412 -3.608,11.48 -10.988,18.204c1.804,2.624 4.756,4.428 7.38,4.428c6.232,0 12.464,-9.84 12.464,-19.844c0,-10.496 -6.396,-16.4 -17.712,-16.4c-22.96,0 -45.264,24.108 -45.264,48.872zm63.06,17.876c0,9.676 10.332,13.94 11.972,13.94c0.984,0 0.984,-1.476 0.984,-5.412c0.164,-4.756 2.624,-11.808 4.92,-17.876c5.576,-14.432 8.528,-26.076 18.532,-37.228c-4.264,-6.396 -11.644,-10.004 -15.252,-10.824c-9.84,4.92 -14.596,21.976 -15.58,26.24c-4.264,19.68 -5.576,27.388 -5.576,31.16zm31.324,-71.176c0,1.804 2.296,3.936 4.92,4.428c1.64,-3.608 13.612,-18.204 18.532,-22.796c-3.28,-4.92 -14.76,-11.48 -19.844,-11.48c-2.788,7.052 -5.084,17.712 -5.084,21.484c0,1.804 0.82,4.264 1.968,5.412c-0.328,1.312 -0.492,2.296 -0.492,2.952zm21.568,87.904c26.24,-5.576 45.1,-29.028 45.1,-56.416c0,-10.496 -2.788,-15.416 -8.692,-15.416c-0.984,0 -1.968,0.164 -2.952,0.164c-3.28,-5.74 -6.888,-9.84 -10.332,-11.644c-5.084,0 -10.988,2.296 -16.892,6.724c-15.416,11.316 -26.732,32.472 -26.732,50.02c0,14.76 8.036,25.256 20.5,26.568zm8.364,-51.66c5.412,-7.052 13.12,-14.104 22.632,-16.892c1.476,2.296 2.132,5.412 2.132,10.988c0,25.584 -14.268,46.576 -33.784,50.84c-2.132,-0.656 -4.264,-6.396 -4.264,-11.644c0,-8.692 5.74,-23.288 13.284,-33.292zm84.216,42.312c5.084,3.444 12.628,6.396 15.58,6.396c0,0 0.656,-0.164 0.656,-0.656c0,-2.132 -3.608,-5.74 -3.608,-15.088c0,-17.22 12.628,-35.588 20.664,-54.776c-1.968,-2.46 -9.84,-5.248 -15.58,-5.248c-7.38,7.052 -10.824,16.564 -12.792,21.976c-3.608,9.676 -11.644,19.68 -16.072,25.748c-9.02,12.3 -13.448,17.712 -16.728,19.024c-0.328,-0.328 -1.148,-1.312 -1.148,-2.952c0,-5.74 4.756,-20.664 6.888,-25.584c9.84,-23.288 18.86,-35.752 20.828,-37.884c-3.28,-3.772 -10.824,-5.084 -14.596,-5.084c-13.776,10.004 -25.42,37.72 -29.356,54.284c-0.984,4.592 -1.312,7.872 -1.312,13.94c1.804,7.708 10.988,12.464 17.876,12.792c1.476,-0.164 4.264,-2.132 7.052,-5.084c3.608,-4.264 15.416,-21.156 17.22,-20.992c-0.492,1.476 -0.82,3.444 -0.82,5.904c0,3.772 1.148,9.84 5.248,13.284zm87.988,-61.664c-1.312,-5.084 -13.94,-17.876 -18.86,-19.188c-11.48,2.46 -21.648,15.088 -21.648,26.732c0,9.184 5.084,18.696 5.084,29.848c-19.024,1.312 -33.784,15.416 -33.784,32.144c1.804,6.068 9.348,12.3 15.58,12.792c17.548,-1.804 28.208,-13.612 28.208,-31.816c0,-2.624 -0.164,-4.264 -0.164,-5.904c0,-2.46 0.82,-2.788 10.988,-5.084c0.328,-0.328 0.656,-1.312 0.656,-2.132c0,-0.82 0,-0.984 -0.164,-1.312c-3.444,0 -6.888,0.164 -11.48,0.328c-0.164,-0.328 -0.164,-0.656 -0.164,-1.968c0,-20.992 4.756,-32.308 13.448,-32.308c2.296,0 3.936,2.296 3.936,5.412c0,2.624 -2.624,7.544 -2.624,8.856c0.164,1.476 0.82,2.296 2.132,2.46c3.444,0 8.364,-10.496 8.856,-18.86zm-54.12,74.784c-2.132,-1.476 -3.28,-3.444 -3.28,-5.904c0,-7.544 14.104,-21.812 22.632,-22.96c0,11.316 -8.856,24.6 -19.352,28.864zm56.828,-40.344c0,9.676 4.592,11.316 10.004,12.792c7.052,-39.524 29.356,-76.916 51.824,-95.448c-0.984,-5.412 -11.316,-14.76 -18.204,-16.236c-12.792,9.348 -43.624,80.852 -43.624,98.892zm-3.608,43.46c6.56,0 8.856,-10.004 13.94,-15.58c-2.952,-5.248 -10.168,-10.332 -16.236,-10.332c-4.92,0 -7.708,12.628 -7.708,18.04c0,2.296 4.92,7.872 10.004,7.872z"/></g></svg>
